# xmcd
#
# Track frame offsets:
#	150
#	20327
#	42292
#	60167
#	81605
#	105645
#	120595
#	140705
#	165207
#	197460
#
# Disc length: 2887 seconds
#
# Revision: 1245205
# Processed by: cddbd v1.5.2PL0 Copyright (c) Steve Scherf et al.
# Submitted via: EZCDAudioConverter 8.0.2.1
#
DISCID=790b450a
DTITLE=Thanh Tuyền - Đà Lạt Hoàng Hôn
DYEAR=1996
DGENRE=Miscellaneous
TTITLE0=Tôi vẫn nhớ
TTITLE1=Sao không thấy anh về
TTITLE2=Miền Trung thương nhớ
TTITLE3=Đà Lạt Hoàng Hôn
TTITLE4=Nẻo đường kỷ niệm
TTITLE5=Xin cho tôi giấc mộng bình yên
TTITLE6=Thương một người
TTITLE7=Duyên tình
TTITLE8=Hàn Mặc Tử
TTITLE9=Tình khúc buồn
EXTD=
EXTT0=
EXTT1=
EXTT2=
EXTT3=
EXTT4=
EXTT5=
EXTT6=
EXTT7=
EXTT8=
EXTT9=
PLAYORDER=
